Coordinates
version=1
nRows=11
nColumns=63
inDegrees=yes

Units are S.I. units (second, meters, Newtons, ...)
If the header above contains a line with 'inDegrees', this indicates whether rotational values are in degrees (yes) or radians (no).

endheader
time	pelvis_tilt	pelvis_list	pelvis_rotation	pelvis_tx	pelvis_ty	pelvis_tz	hip_flexion_r	hip_adduction_r	hip_rotation_r	knee_angle_r	knee_angle_r_beta	ankle_angle_r	subtalar_angle_r	mtp_angle_r	hip_flexion_l	hip_adduction_l	hip_rotation_l	knee_angle_l	knee_angle_l_beta	ankle_angle_l	subtalar_angle_l	mtp_angle_l	L5_S1_Flex_Ext	L5_S1_Lat_Bending	L5_S1_axial_rotation	L4_L5_Flex_Ext	L4_L5_Lat_Bending	L4_L5_axial_rotation	L3_L4_Flex_Ext	L3_L4_Lat_Bending	L3_L4_axial_rotation	L2_L3_Flex_Ext	L2_L3_Lat_Bending	L2_L3_axial_rotation	L1_L2_Flex_Ext	L1_L2_Lat_Bending	L1_L2_axial_rotation	L1_T12_Flex_Ext	L1_T12_Lat_Bending	L1_T12_axial_rotation	Abs_r3	Abs_r2	Abs_r1	Abs_t1	Abs_t2	neck_flexion	neck_bending	neck_rotation	arm_flex_r	arm_add_r	arm_rot_r	elbow_flex_r	pro_sup_r	wrist_flex_r	wrist_dev_r	arm_flex_l	arm_add_l	arm_rot_l	elbow_flex_l	pro_sup_l	wrist_flex_l	wrist_dev_l
      0.00800000	     -6.63480909	     -5.00021693	     -4.64825967	     -0.27093587	      1.07137621	      0.25897691	     66.46845504	     -6.93448937	     -1.57219326	    116.11736017	      2.02663025	     10.62128379	     -0.69413375	      0.00000000	     49.26449495	    -10.43398240	     -0.83795001	     52.17833697	      0.91068378	     10.20635088	      1.82436333	      0.00000000	     -0.03974800	      0.75807126	      0.22910542	     -0.07381601	      1.00823478	      0.24342451	     -0.06530199	      1.84317446	      0.24342451	     -0.04542799	      1.84317446	      0.20046724	     -0.03690999	      1.54585891	      0.18614815	     -0.02271201	      1.17425238	      0.17182907	     -0.28391597	      8.57545371	      1.27421562	      0.00000000	      0.00000000	      0.00000000	      0.00000000	      0.00000001	    -10.05224012	    -17.87951598	     12.79136560	     74.91973870	     55.35933891	      0.00000000	      3.54244327	     -4.71707084	     -9.37993410	     18.65754333	     51.81281924	     54.65411349	      0.00000000	      3.54244327
      0.01700000	     -6.55948861	     -5.23067716	     -5.53374050	     -0.27160144	      1.07062612	      0.25918963	     68.22826041	     -6.24601230	     -1.23018324	    117.98751213	      2.05927056	     12.45890108	      1.28965662	      0.00000000	     46.65041580	    -11.08999139	     -1.54844291	     49.84162174	      0.86990040	     10.01201779	      3.61023272	      0.00000000	     -0.03652011	      0.79562766	      0.31601795	     -0.06782150	      1.05818479	      0.33576907	     -0.05999889	      1.93448910	      0.33576907	     -0.04173883	      1.93448910	      0.27651571	     -0.03391257	      1.62244393	      0.25676459	     -0.02086759	      1.23242725	      0.23701346	     -0.26085949	      9.00029926	      1.75759705	      0.00000000	      0.00000000	      0.00000000	      0.00000000	      0.00000001	    -10.46864160	    -18.19229582	     12.30378775	     76.58166064	     54.99395387	      0.00000000	      3.61922885	     -3.93390854	     -8.91452145	     19.21549145	     49.29145011	     54.05126743	      0.00000000	      3.61922885
      0.02500000	     -6.62624757	     -5.29961511	     -5.62150223	     -0.27200652	      1.07040790	      0.25911303	     68.91212775	     -6.13659238	     -1.21064608	    118.40154485	      2.06649680	     12.98231838	      1.26228752	      0.00000000	     46.10488795	    -11.17155641	     -1.62356281	     49.21186727	      0.85890911	      9.91013541	      3.69355020	      0.00000000	     -0.03412010	      0.80475708	      0.27754151	     -0.06336445	      1.07032692	      0.29488785	     -0.05605592	      1.95668636	      0.29488785	     -0.03899587	      1.95668636	      0.24284882	     -0.03168393	      1.64106064	      0.22550248	     -0.01949623	      1.24656872	      0.20815613	     -0.24371649	      9.10357303	      1.54360261	      0.00000000	      0.00000000	      0.00000000	      0.00000000	      0.00000001	    -10.41393660	    -18.29569855	     12.52126534	     77.03029336	     54.96235138	      0.00000000	      3.63022521	     -3.82892168	     -8.84311306	     19.18541340	     48.80027911	     53.95037348	      0.00000000	      3.63022521
      0.03300000	     -6.62845471	     -5.20110229	     -5.92534534	     -0.27237939	      1.07034075	      0.25938498	     69.62023372	     -5.90296515	     -0.82628686	    118.83135621	      2.07399842	     14.30608473	      2.13870752	      0.00000000	     45.28190593	    -11.35930896	     -2.24849644	     48.40912828	      0.84489868	     10.15557598	      4.01787934	      0.00000000	     -0.03701992	      0.79233876	      0.27212015	     -0.06874969	      1.05381056	      0.28912766	     -0.06082002	      1.92649247	      0.28912766	     -0.04231006	      1.92649247	      0.23810513	     -0.03437670	      1.61573721	      0.22109762	     -0.02115318	      1.22733275	      0.20409011	     -0.26442957	      8.96309457	      1.51345063	      0.00000000	      0.00000000	      0.00000000	      0.00000000	      0.00000001	    -10.25108423	    -18.32783785	     12.92976904	     77.32329518	     54.65858255	      0.00000000	      3.71008793	     -3.68080436	     -8.88605616	     19.29949948	     48.16298921	     53.20706840	      0.00000000	      3.71008793
      0.04200000	     -6.69925981	     -5.31496647	     -6.04520810	     -0.27285554	      1.07020906	      0.25927020	     70.43524172	     -5.72112953	     -0.82151551	    119.19149962	      2.08028411	     15.05132677	      2.00392119	      0.00000000	     44.55063544	    -11.50456710	     -2.39758756	     47.56753246	      0.83021006	     10.23608087	      3.93028527	      0.00000000	     -0.03614268	      0.80788211	      0.23133796	     -0.06712056	      1.07448320	      0.24579659	     -0.05937880	      1.96428456	      0.24579659	     -0.04130746	      1.96428456	      0.20242072	     -0.03356209	      1.64743320	      0.18796210	     -0.02065193	      1.25140939	      0.17350347	     -0.25816352	      9.13892399	      1.28663236	      0.00000000	      0.00000000	      0.00000000	      0.00000000	      0.00000001	    -10.19052810	    -18.44244302	     13.19928098	     77.81190783	     54.61405601	      0.00000000	      3.72508986	     -3.54810867	     -8.79044597	     19.30168620	     47.52901607	     53.05709291	      0.00000000	      3.72508986
      0.05000000	     -6.82570018	     -5.47184787	     -6.20471639	     -0.27345956	      1.07010901	      0.25913486	     71.34094993	     -5.47954539	     -0.83675430	    119.44856781	      2.08477079	     15.85786998	      1.89460866	      0.00000000	     43.83561517	    -11.72212435	     -2.58487790	     46.69289403	      0.81494474	     10.33799959	      3.77240132	      0.00000000	     -0.03395809	      0.83017716	      0.18708052	     -0.06306357	      1.10413563	      0.19877305	     -0.05578975	      2.01849276	      0.19877305	     -0.03881070	      2.01849276	      0.16369545	     -0.03153348	      1.69289727	      0.15200292	     -0.01940365	      1.28594443	      0.14031039	     -0.24255924	      9.39113011	      1.04048571	      0.00000000	      0.00000000	      0.00000000	      0.00000000	      0.00000001	    -10.06678426	    -18.56231557	     13.46754711	     78.26538373	     54.58506355	      0.00000000	      3.73668292	     -3.44457261	     -8.70624976	     19.32464167	     46.94517989	     52.94441548	      0.00000000	      3.73668292
      0.05800000	     -6.94692209	     -5.65397792	     -6.38741483	     -0.27408137	      1.07008629	      0.25897981	     72.23186837	     -5.20086954	     -0.88211092	    119.60639287	      2.08752536	     16.71915230	      1.77209737	      0.00000000	     43.04946510	    -11.97982578	     -2.82387825	     45.75553574	      0.79858475	     10.49005236	      3.50900635	      0.00000000	     -0.03316915	      0.85513007	      0.14971570	     -0.06159843	      1.13732299	      0.15907293	     -0.05449360	      2.07916325	      0.15907293	     -0.03790902	      2.07916325	      0.13100124	     -0.03080087	      1.74378124	      0.12164401	     -0.01895285	      1.32459648	      0.11228678	     -0.23692393	      9.67340238	      0.83267382	      0.00000000	      0.00000000	      0.00000000	      0.00000000	      0.00000001	     -9.93718761	    -18.71336515	     13.76659020	     78.70178411	     54.56101257	      0.00000000	      3.74789618	     -3.34032139	     -8.59882522	     19.34810005	     46.33724130	     52.83225578	      0.00000000	      3.74789618
      0.06700000	     -7.02443026	     -5.75423166	     -6.77014336	     -0.27463361	      1.07020245	      0.25904366	     73.08020920	     -4.78848656	     -0.80454844	    119.69030736	      2.08898995	     17.81055658	      1.85513273	      0.00000000	     42.12934607	    -12.31095889	     -3.42710477	     44.84171195	      0.78263552	     10.70294987	      2.90315475	      0.00000000	     -0.03551205	      0.86938927	      0.15159122	     -0.06594943	      1.15628773	      0.16106567	     -0.05834275	      2.11383308	      0.16106567	     -0.04058672	      2.11383308	      0.13264231	     -0.03297649	      1.77285860	      0.12316786	     -0.02029159	      1.34668398	      0.11369341	     -0.25365902	      9.83470533	      0.84310486	      0.00000000	      0.00000000	      0.00000000	      0.00000000	      0.00000001	     -9.73698294	    -18.84609745	     14.16395808	     79.00706000	     54.42393492	      0.00000000	      3.78959478	     -3.24030847	     -8.50505572	     19.43962016	     45.65569374	     52.38931732	      0.00000000	      3.78959478
      0.07500000	     -7.19709753	     -5.92569875	     -6.85116711	     -0.27547022	      1.07000854	      0.25882200	     74.08489153	     -4.65716933	     -0.94688724	    119.74074249	      2.08987021	     18.18515552	      1.76935162	      0.00000000	     41.63456897	    -12.51798812	     -3.44871985	     44.39931342	      0.77491420	     10.65896024	      2.80134440	      0.00000000	     -0.03314835	      0.89057914	      0.09158030	     -0.06155979	      1.18447025	      0.09730407	     -0.05445942	      2.16535412	      0.09730407	     -0.03788524	      2.16535412	      0.08013276	     -0.03078155	      1.81606898	      0.07440899	     -0.01894096	      1.37950708	      0.06868522	     -0.23677532	     10.07440932	      0.50934214	      0.00000000	      0.00000000	      0.00000000	      0.00000000	      0.00000001	     -9.54811200	    -18.79940976	     14.19880327	     79.33912971	     54.40998792	      0.00000000	      3.79347547	     -3.25736824	     -8.52881545	     19.45635324	     45.40933384	     52.34886296	      0.00000000	      3.79347547
      0.08300000	     -7.32083151	     -6.07421724	     -6.95060561	     -0.27602617	      1.07003339	      0.25844299	     74.95060432	     -4.52083208	     -1.10898029	    119.75244781	      2.09007450	     18.77978650	      1.53821237	      0.00000000	     40.81511195	    -12.66701908	     -3.64807345	     43.41128698	      0.75766989	     10.69085838	      2.48567622	      0.00000000	     -0.03048614	      0.91183522	      0.05806755	     -0.05661581	      1.21274084	      0.06169677	     -0.05008568	      2.21703614	      0.06169677	     -0.03484261	      2.21703614	      0.05080911	     -0.02830943	      1.85941437	      0.04717989	     -0.01741978	      1.41243275	      0.04355066	     -0.21775943	     10.31486232	      0.32295430	      0.00000000	      0.00000000	      0.00000000	      0.00000000	      0.00000001	     -9.55039102	    -19.00034872	     14.48301613	     79.90948838	     54.39809866	      0.00000000	      3.80156987	     -3.21180408	     -8.44435612	     19.45440066	     44.97537069	     52.25754809	      0.00000000	      3.80156987
      0.09200000	     -7.30323775	     -5.97029471	     -7.25951700	     -0.27635876	      1.07025636	      0.25828745	     75.70322260	     -4.34975278	     -1.09926303	    119.74756539	      2.08998929	     19.32110230	      1.10746001	      0.00000000	     39.85651729	    -12.69156510	     -4.14268958	     42.69009136	      0.74508265	     10.64886102	      1.69927500	      0.00000000	     -0.03528958	      0.90042997	      0.06750209	     -0.06553627	      1.19757186	      0.07172097	     -0.05797725	      2.18930543	      0.07172097	     -0.04033246	      2.18930543	      0.05906433	     -0.03276990	      1.83615679	      0.05484545	     -0.02016446	      1.39476602	      0.05062657	     -0.25206992	     10.18584389	      0.37542639	      0.00000000	      0.00000000	      0.00000000	      0.00000000	      0.00000001	     -9.44207827	    -19.08405260	     14.82393942	     80.12035239	     54.29332440	      0.00000000	      3.83551839	     -3.19560361	     -8.42157126	     19.50890267	     44.50833871	     51.86431375	      0.00000000	      3.83551839
